<svg width="20" height="16" viewBox="0 0 20 16" fill="none" xmlns="http://www.w3.org/2000/svg">
<path d="M1.94363 15.5488C1.40914 15.5488 0.951571 15.3585 0.570943 14.9779C0.190314 14.5973 0 14.1397 0 13.6052V1.94338C0 1.40888 0.190314 0.951321 0.570943 0.570692C0.951571 0.190063 1.40914 -0.000250816 1.94363 -0.000250816H17.4927C18.0272 -0.000250816 18.4848 0.190063 18.8654 0.570692C19.246 0.951321 19.4363 1.40888 19.4363 1.94338V13.6052C19.4363 14.1397 19.246 14.5973 18.8654 14.9779C18.4848 15.3585 18.0272 15.5488 17.4927 15.5488H1.94363ZM9.71817 8.74611L1.94363 3.88702V13.6052H17.4927V3.88702L9.71817 8.74611ZM9.71817 6.80247L17.4927 1.94338H1.94363L9.71817 6.80247Z" fill="#800020"/>
</svg>
