<svg width="16" height="20" viewBox="0 0 16 20" fill="none" xmlns="http://www.w3.org/2000/svg">
<path d="M7.77454 9.71786C8.30904 9.71786 8.7666 9.52755 9.14723 9.14692C9.52786 8.76629 9.71817 8.30872 9.71817 7.77423C9.71817 7.23973 9.52786 6.78216 9.14723 6.40153C8.7666 6.0209 8.30904 5.83059 7.77454 5.83059C7.24004 5.83059 6.78248 6.0209 6.40185 6.40153C6.02122 6.78216 5.8309 7.23973 5.8309 7.77423C5.8309 8.30872 6.02122 8.76629 6.40185 9.14692C6.78248 9.52755 7.24004 9.71786 7.77454 9.71786ZM7.77454 16.8607C9.75057 15.0467 11.2164 13.3986 12.172 11.9166C13.1276 10.4346 13.6054 9.11857 13.6054 7.96859C13.6054 6.20312 13.0426 4.75754 11.9169 3.63185C10.7912 2.50616 9.41043 1.94332 7.77454 1.94332C6.13865 1.94332 4.75786 2.50616 3.63217 3.63185C2.50648 4.75754 1.94363 6.20312 1.94363 7.96859C1.94363 9.11857 2.42145 10.4346 3.37707 11.9166C4.33269 13.3986 5.79851 15.0467 7.77454 16.8607ZM7.77454 19.436C5.16683 17.2171 3.21915 15.156 1.93149 13.2528C0.643829 11.3497 0 9.58828 0 7.96859C0 5.53904 0.781503 3.60351 2.34451 2.16198C3.90752 0.720449 5.71753 -0.000314713 7.77454 -0.000314713C9.83155 -0.000314713 11.6416 0.720449 13.2046 2.16198C14.7676 3.60351 15.5491 5.53904 15.5491 7.96859C15.5491 9.58828 14.9053 11.3497 13.6176 13.2528C12.3299 15.156 10.3822 17.2171 7.77454 19.436Z" fill="#800020"/>
</svg>
