<svg width="18" height="18" viewBox="0 0 18 18" fill="none" xmlns="http://www.w3.org/2000/svg">
<path d="M16.4723 17.4927C14.4477 17.4927 12.4474 17.0513 10.4713 16.1686C8.4953 15.2858 6.69744 14.0346 5.07775 12.4149C3.45805 10.7952 2.20684 8.99737 1.3241 7.02134C0.441367 5.04531 0 3.04499 0 1.02037C0 0.728825 0.0971817 0.48587 0.291545 0.291508C0.485909 0.0971432 0.728863 -3.8147e-05 1.02041 -3.8147e-05H4.95627C5.18303 -3.8147e-05 5.38549 0.0768967 5.56365 0.230768C5.74182 0.38464 5.8471 0.566854 5.8795 0.777416L6.51118 4.17878C6.54357 4.43793 6.53547 4.65659 6.48688 4.83475C6.43829 5.01292 6.34921 5.16679 6.21963 5.29637L3.86297 7.67732C4.18691 8.27661 4.57159 8.85565 5.01701 9.41444C5.46242 9.97324 5.95238 10.5118 6.48688 11.0301C6.98899 11.5322 7.51539 11.9979 8.06608 12.4271C8.61678 12.8563 9.19987 13.2491 9.81536 13.6054L12.0991 11.3216C12.2449 11.1759 12.4352 11.0665 12.6701 10.9936C12.9049 10.9208 13.1357 10.9005 13.3625 10.9329L16.7153 11.6132C16.942 11.678 17.1283 11.7954 17.2741 11.9655C17.4198 12.1355 17.4927 12.3258 17.4927 12.5364V16.4723C17.4927 16.7638 17.3955 17.0068 17.2012 17.2011C17.0068 17.3955 16.7639 17.4927 16.4723 17.4927ZM2.93975 5.83087L4.54325 4.22737L4.13022 1.9436H1.96793C2.04892 2.60767 2.16229 3.26365 2.30807 3.91153C2.45384 4.55941 2.6644 5.19919 2.93975 5.83087ZM11.6375 14.5286C12.2692 14.804 12.913 15.0226 13.569 15.1846C14.225 15.3466 14.885 15.4519 15.5491 15.5005V13.3625L13.2653 12.9008L11.6375 14.5286Z" fill="#800020"/>
</svg>
