<svg width="40" height="40" viewBox="0 0 40 40" fill="none" xmlns="http://www.w3.org/2000/svg">
<rect width="40" height="40" rx="2" fill="#800020"/>
<path d="M15.1288 29.7222V20.8263C14.3024 20.5995 13.6097 20.1458 13.0507 19.4652C12.4917 18.7847 12.2122 17.9907 12.2122 17.0833V10.2777H14.1566V17.0833H15.1288V10.2777H17.0733V17.0833H18.0455V10.2777H19.9899V17.0833C19.9899 17.9907 19.7104 18.7847 19.1514 19.4652C18.5924 20.1458 17.8997 20.5995 17.0733 20.8263V29.7222H15.1288ZM24.851 29.7222V21.9444H21.9344V15.1388C21.9344 13.7939 22.4083 12.6475 23.3563 11.6996C24.3042 10.7517 25.4506 10.2777 26.7955 10.2777V29.7222H24.851Z" fill="white"/>
</svg>
